<svg xmlns="http://www.w3.org/2000/svg" viewBox="0 0 100 100" role="img" aria-hidden="true">
  <g fill="none" stroke="#14532D" stroke-width="2" stroke-linecap="round" stroke-linejoin="round">

    <!-- leaves -->
    <path fill="#86EFAC" d="M30 72 C38 76 45 78 50 78 C55 78 62 76 70 72 C63 70 57 69 50 69 C43 69 37 70 30 72 Z"/>
    <path fill="#6EE7B7" d="M40 74 C44 77 47 79 50 80 C53 79 56 77 60 74 C57 73 53 72 50 72 C47 72 43 73 40 74 Z"/>
    <!-- petals -->
    <path fill="#F9A8D4" d="M50 30 C46 40 44 50 44 62 C46 64 48 66 50 67 C52 66 54 64 56 62 C56 50 54 40 50 30 Z"/>
    <path fill="#FBCFE8" d="M40 36 C38 46 38 54 40 63 C42 64 44 65 46 66 C46 55 47 46 50 38 C47 36 44 35 40 36 Z"/>
    <path fill="#FBCFE8" d="M60 36 C56 35 53 36 50 38 C53 46 54 55 54 66 C56 65 58 64 60 63 C62 54 62 46 60 36 Z"/>
    </g>
</svg>
