<svg xmlns="http://www.w3.org/2000/svg" viewBox="0 0 100 100" role="img" aria-hidden="true">
  <g fill="none" stroke="#14532D" stroke-width="2" stroke-linecap="round" stroke-linejoin="round">

    <!-- leaves -->
    <path fill="#86EFAC" d="M26 72 C35 78 43 80 50 80 C57 80 65 78 74 72 C65 69 58 68 50 68 C42 68 35 69 26 72 Z"/>
    <path fill="#6EE7B7" d="M38 75 C42 78 46 80 50 81 C54 80 58 78 62 75 C58 73 54 72 50 72 C46 72 42 73 38 75 Z"/>
    <!-- petals -->
    <path fill="#F9A8D4" d="M50 32 C46 41 44 51 44 64 C46 66 48 68 50 69 C52 68 54 66 56 64 C56 51 54 41 50 32 Z"/>
    <path fill="#FBCFE8" d="M37 40 C36 49 37 57 40 66 C42 67 44 68 46 68 C45 58 46 49 50 41 C46 39 42 38 37 40 Z"/>
    <path fill="#FBCFE8" d="M63 40 C58 38 54 39 50 41 C54 49 55 58 54 68 C56 68 58 67 60 66 C63 57 64 49 63 40 Z"/>
    </g>
</svg>
