<svg xmlns="http://www.w3.org/2000/svg" viewBox="0 0 100 100" role="img" aria-hidden="true">
  <g fill="none" stroke="#14532D" stroke-width="2" stroke-linecap="round" stroke-linejoin="round">

    <!-- leaves -->
    <path fill="#86EFAC" d="M18 72 C30 82 40 84 50 84 C60 84 70 82 82 72 C70 67 60 66 50 66 C40 66 30 67 18 72 Z"/>
    <path fill="#6EE7B7" d="M34 77 C40 80 45 82 50 83 C55 82 60 80 66 77 C60 73 55 72 50 72 C45 72 40 73 34 77 Z"/>
    <!-- petals -->
    <path fill="#F9A8D4" d="M50 40 C46 48 44 58 44 70 C46 72 48 74 50 75 C52 74 54 72 56 70 C56 58 54 48 50 40 Z"/>
    <path fill="#FBCFE8" d="M32 52 C33 60 36 68 40 74 C42 75 44 75 46 75 C45 66 46 57 50 50 C44 48 38 48 32 52 Z"/>
    <path fill="#FBCFE8" d="M68 52 C62 48 56 48 50 50 C54 57 55 66 54 75 C56 75 58 75 60 74 C64 68 67 60 68 52 Z"/>
    </g>
</svg>
